<?xml version="1.0" encoding="UTF-8" standalone="no"?>
<!DOCTYPE svg PUBLIC "-//W3C//DTD SVG 20010904//EN"
              "http://www.w3.org/TR/2001/REC-SVG-20010904/DTD/svg10.dtd">

<svg xmlns="http://www.w3.org/2000/svg"
     width="5.68889in" height="5.68889in"
     viewBox="0 0 512 512">
  <path id="Seleção"
        fill="white" stroke="none" stroke-width="1"
        d="M 214.00,470.00
           C 213.97,487.27 204.75,506.17 187.00,511.21
             182.59,512.47 167.41,512.06 162.00,512.00
             153.00,511.89 137.96,505.99 129.00,503.00
             129.00,503.00 71.00,483.67 71.00,483.67
             71.00,483.67 42.00,474.00 42.00,474.00
             24.18,468.06 7.54,463.48 1.44,443.00
             0.01,438.20 0.01,435.89 0.00,431.00
             0.00,431.00 0.00,100.00 0.00,100.00
             0.00,100.00 0.00,41.00 0.00,41.00
             0.04,17.98 16.98,1.04 40.00,1.00
             40.00,1.00 284.00,1.00 284.00,1.00
             309.09,1.04 330.98,19.82 338.92,43.00
             341.37,50.15 342.91,63.39 343.00,71.00
             343.09,78.98 342.83,93.56 338.20,99.98
             329.41,112.21 307.63,111.65 300.44,98.00
             296.99,91.45 298.08,80.46 298.00,73.00
             297.87,62.55 294.77,52.73 285.00,47.41
             279.79,44.58 271.86,44.01 266.00,44.00
             266.00,44.00 213.00,44.00 213.00,44.00
             205.79,44.00 191.28,43.22 185.00,45.00
             202.62,49.76 213.91,66.05 214.00,84.00
             214.00,84.00 214.00,134.00 214.00,134.00
             214.00,134.00 214.00,406.00 214.00,406.00
             214.00,406.00 267.00,406.00 267.00,406.00
             275.85,405.89 286.44,404.35 292.21,396.91
             296.50,391.38 296.54,387.44 297.42,381.00
             297.42,381.00 298.00,342.00 298.00,342.00
             298.12,332.39 302.24,324.61 312.00,321.79
             315.19,320.86 318.70,320.97 322.00,321.00
             336.55,321.17 341.98,330.63 342.00,344.00
             342.00,344.00 342.00,388.00 342.00,388.00
             341.99,396.03 340.74,402.51 337.80,410.00
             329.28,431.67 307.79,448.96 284.00,449.00
             284.00,449.00 214.00,449.00 214.00,449.00
             214.00,449.00 214.00,470.00 214.00,470.00 Z
           M 383.00,128.00
           C 383.12,118.30 387.85,109.60 398.00,107.20
             400.27,106.89 404.56,106.97 407.00,107.20
             409.92,107.04 412.24,107.07 415.00,108.23
             420.80,110.65 433.79,123.90 438.28,129.00
             438.28,129.00 489.00,179.91 489.00,179.91
             500.16,190.31 512.39,198.26 511.99,215.00
             511.64,229.28 499.52,238.22 490.00,247.09
             490.00,247.09 436.00,301.00 436.00,301.00
             427.43,309.57 419.14,320.67 406.00,320.99
             390.97,321.35 383.07,312.80 383.00,298.00
             383.00,298.00 383.00,235.00 383.00,235.00
             383.00,235.00 298.00,235.00 298.00,235.00
             294.59,234.99 291.24,235.12 288.00,233.85
             279.82,230.65 275.55,220.34 276.18,212.00
             277.25,197.94 285.63,192.02 299.00,192.00
             299.00,192.00 383.00,192.00 383.00,192.00
             383.00,192.00 383.00,128.00 383.00,128.00 Z" />
</svg>
