<?xml version="1.0" encoding="UTF-8" standalone="no"?>
<!DOCTYPE svg PUBLIC "-//W3C//DTD SVG 20010904//EN"
              "http://www.w3.org/TR/2001/REC-SVG-20010904/DTD/svg10.dtd">

<svg xmlns="http://www.w3.org/2000/svg"
     width="5.76389in" height="2.875in"
     viewBox="0 0 415 207">
  <path id="top_burguer"
        fill="none" stroke="black" stroke-width="1"
        d="M 215.95,29.00
           C 215.61,36.37 211.13,38.28 209.26,49.00
             208.67,52.42 208.07,55.60 211.24,57.92
             215.33,60.91 226.80,62.56 232.00,63.43
             246.14,65.81 263.51,66.88 277.00,71.54
             317.65,85.58 357.58,114.97 383.65,149.00
             394.92,163.71 398.55,169.89 405.20,187.00
             406.42,190.14 410.48,199.30 408.00,202.22
             406.43,204.08 399.55,203.01 397.00,203.00
             397.00,203.00 373.00,204.00 373.00,204.00
             373.00,204.00 169.00,204.00 169.00,204.00
             169.00,204.00 76.00,204.00 76.00,204.00
             76.00,204.00 63.00,205.00 63.00,205.00
             63.00,205.00 18.00,205.00 18.00,205.00
             16.32,205.00 12.87,205.14 11.43,204.43
             9.25,203.35 4.15,191.49 4.43,189.00
             5.46,180.08 19.43,159.22 25.26,152.00
             37.38,136.99 54.03,117.79 69.09,105.88
             90.17,89.22 114.37,78.05 140.00,70.41
             153.09,66.51 162.75,64.98 176.00,62.68
             176.00,62.68 183.00,61.17 183.00,61.17
             189.94,60.17 197.61,61.57 196.83,52.00
             195.95,41.38 190.98,40.25 189.65,33.99
             188.36,27.90 194.20,17.49 196.69,12.00
             198.90,7.11 198.48,4.75 204.00,3.00
             208.47,11.42 216.44,18.54 215.95,29.00 Z
           M 56.00,193.00
           C 56.00,193.00 71.00,192.00 71.00,192.00
             71.00,192.00 99.00,191.00 99.00,191.00
             99.00,191.00 120.00,190.00 120.00,190.00
             120.00,190.00 138.00,189.00 138.00,189.00
             138.00,189.00 149.00,188.04 149.00,188.04
             149.00,188.04 159.00,188.04 159.00,188.04
             159.00,188.04 174.00,187.00 174.00,187.00
             174.00,187.00 244.00,187.00 244.00,187.00
             244.00,187.00 261.00,188.00 261.00,188.00
             261.00,188.00 279.00,189.00 279.00,189.00
             279.00,189.00 310.00,190.00 310.00,190.00
             310.00,190.00 325.00,191.00 325.00,191.00
             325.00,191.00 339.00,191.00 339.00,191.00
             339.00,191.00 352.00,192.00 352.00,192.00
             352.00,192.00 365.00,192.00 365.00,192.00
             365.00,192.00 381.00,193.00 381.00,193.00
             383.63,193.00 391.39,193.67 392.92,191.40
             394.31,189.35 392.34,185.95 391.47,184.00
             388.93,178.35 383.69,169.24 380.29,164.00
             367.88,144.92 339.32,115.99 320.00,104.06
             301.62,92.72 281.75,84.35 261.00,78.58
             253.20,76.41 233.58,72.09 226.00,72.00
             226.00,72.00 208.00,71.00 208.00,71.00
             179.37,70.87 150.53,75.17 124.00,86.43
             101.22,96.10 86.37,106.84 67.72,122.73
             48.10,139.44 21.87,167.26 16.00,193.00
             16.00,193.00 56.00,193.00 56.00,193.00 Z
           M 197.00,96.00
           C 197.00,96.00 191.00,96.00 191.00,96.00
             193.22,97.38 197.97,100.03 198.00,102.99
             198.06,107.69 188.78,106.55 186.00,106.00
             186.00,106.00 185.00,92.00 185.00,92.00
             190.63,91.74 195.80,89.07 197.00,96.00 Z
           M 207.00,91.02
           C 216.00,91.61 212.99,98.56 214.00,105.00
             214.00,105.00 213.00,106.00 213.00,106.00
             213.00,106.00 202.00,106.00 202.00,106.00
             202.00,106.00 202.00,91.02 202.00,91.02
             202.00,91.02 207.00,91.02 207.00,91.02 Z
           M 179.40,94.78
           C 181.86,96.85 181.88,106.73 178.71,108.26
             170.91,112.02 168.23,98.21 168.80,96.32
             169.27,94.79 173.06,91.84 174.07,100.00
             174.07,100.00 175.00,105.00 175.00,105.00
             175.00,105.00 177.00,105.00 177.00,105.00
             177.00,105.00 176.00,94.00 176.00,94.00
             177.31,94.07 178.19,93.76 179.40,94.78 Z
           M 232.74,94.17
           C 234.86,95.25 236.39,105.29 237.00,108.00
             232.29,107.83 231.73,107.96 229.00,104.00
             227.87,106.71 227.87,106.45 225.00,107.00
             225.22,104.17 228.38,91.94 232.74,94.17 Z
           M 253.32,99.42
           C 253.32,99.42 252.00,111.00 252.00,111.00
             252.00,111.00 249.00,111.00 249.00,111.00
             249.00,111.00 246.00,105.00 246.00,105.00
             246.00,105.00 245.00,110.00 245.00,110.00
             245.00,110.00 240.00,109.00 240.00,109.00
             240.00,109.00 244.00,95.00 244.00,95.00
             246.53,95.58 252.34,96.70 253.32,99.42 Z
           M 165.84,107.90
           C 165.13,109.92 163.93,111.22 161.94,111.94
             153.49,115.00 148.07,99.78 157.09,97.16
             158.46,96.94 161.48,97.01 163.00,97.16
             163.00,97.16 163.00,101.00 163.00,101.00
             163.00,101.00 158.00,100.00 158.00,100.00
             156.54,104.38 156.94,106.48 161.00,109.00
             161.00,109.00 160.00,104.00 160.00,104.00
             160.00,104.00 165.84,103.00 165.84,103.00
             165.98,104.34 166.03,106.65 165.84,107.90 Z
           M 269.00,102.00
           C 269.00,102.00 268.00,106.00 268.00,106.00
             268.00,106.00 265.00,105.00 265.00,105.00
             265.00,105.00 262.00,115.00 262.00,115.00
             262.00,115.00 258.00,114.00 258.00,114.00
             258.00,114.00 261.00,103.00 261.00,103.00
             261.00,103.00 260.00,99.00 260.00,99.00
             260.00,99.00 269.00,102.00 269.00,102.00 Z
           M 208.00,102.00
           C 208.00,102.00 209.00,103.00 209.00,103.00
             209.00,103.00 209.00,102.00 209.00,102.00
             209.00,102.00 208.00,102.00 208.00,102.00 Z
           M 142.13,117.16
           C 139.04,117.01 139.28,114.20 138.72,111.98
             138.17,109.81 136.17,106.42 137.16,104.43
             138.60,101.56 146.02,101.20 147.98,103.60
             147.98,103.60 152.00,114.00 152.00,114.00
             150.02,114.62 143.48,117.22 142.13,117.16 Z
           M 273.72,105.05
           C 275.00,104.19 283.67,104.07 282.00,112.00
             282.00,112.00 280.00,111.00 280.00,111.00
             277.81,113.92 277.59,113.71 274.00,114.00
             274.00,114.00 280.00,117.00 280.00,117.00
             280.00,117.00 280.00,120.00 280.00,120.00
             274.38,119.87 273.04,119.57 268.00,117.00
             268.70,115.27 272.69,105.74 273.72,105.05 Z
           M 134.04,117.96
           C 133.84,121.86 129.52,123.70 126.39,121.81
             124.02,120.38 121.06,113.64 120.00,111.00
             120.00,111.00 125.00,110.00 125.00,110.00
             125.27,111.17 128.68,121.29 130.61,116.54
             132.00,113.08 126.63,111.44 130.00,106.00
             131.54,108.33 134.18,115.24 134.04,117.96 Z
           M 291.57,124.40
           C 288.68,126.82 284.00,125.29 283.41,121.90
             282.91,119.03 285.72,113.98 287.57,112.00
             297.66,108.36 295.49,121.11 291.57,124.40 Z
           M 112.96,115.32
           C 116.97,114.86 122.70,121.91 121.37,125.69
             120.29,128.75 114.61,131.97 111.84,129.38
             111.06,128.66 109.29,125.15 108.64,124.00
             107.13,121.35 106.84,120.97 106.00,118.00
             107.92,117.12 110.92,115.55 112.96,115.32 Z
           M 303.95,118.74
           C 308.46,118.90 305.58,125.63 305.19,128.00
             305.19,128.00 304.00,135.00 304.00,135.00
             300.16,133.31 299.73,133.19 299.00,129.00
             295.13,129.81 294.36,129.85 293.00,126.00
             295.39,124.48 301.93,118.67 303.95,118.74 Z
           M 90.33,130.22
           C 90.41,127.57 98.72,123.05 101.00,122.00
             101.00,122.00 109.00,135.00 109.00,135.00
             109.00,135.00 96.00,142.00 96.00,142.00
             94.26,134.97 90.24,133.25 90.33,130.22 Z
           M 323.00,130.00
           C 322.16,134.98 317.71,140.18 313.00,142.00
             310.92,138.75 310.81,138.65 307.00,138.00
             307.00,138.00 314.00,125.00 314.00,125.00
             314.00,125.00 323.00,130.00 323.00,130.00 Z
           M 198.50,140.40
           C 203.03,136.47 200.35,130.30 207.00,128.00
             208.22,132.10 209.77,139.64 214.11,141.40
             216.77,142.48 221.29,141.24 226.00,142.00
             226.00,142.00 216.20,152.30 216.20,152.30
             216.20,152.30 219.00,167.00 219.00,167.00
             219.00,167.00 205.00,160.70 205.00,160.70
             205.00,160.70 192.00,167.00 192.00,167.00
             192.00,167.00 194.46,153.09 194.46,153.09
             194.46,153.09 185.00,142.00 185.00,142.00
             188.83,141.62 195.84,142.72 198.50,140.40 Z
           M 84.07,149.41
           C 82.69,147.89 75.34,132.40 85.00,136.60
             85.00,136.60 88.00,138.45 88.00,138.45
             88.00,138.45 94.00,142.00 94.00,142.00
             92.85,146.99 91.81,147.04 87.00,146.00
             89.15,151.53 85.43,150.91 84.07,149.41 Z
           M 331.72,139.37
           C 332.66,141.32 328.90,149.69 328.00,152.00
             328.00,152.00 323.00,150.00 323.00,150.00
             323.00,150.00 325.00,146.00 325.00,146.00
             325.00,146.00 318.00,146.00 318.00,146.00
             319.58,143.66 329.76,135.34 331.72,139.37 Z
           M 68.31,147.61
           C 72.96,143.06 73.77,144.66 78.07,148.85
             79.36,150.11 81.79,152.04 81.80,154.00
             81.82,157.02 75.47,161.73 73.00,163.00
             69.93,157.69 68.88,156.71 64.00,153.00
             65.48,150.19 66.08,149.79 68.31,147.61 Z
           M 343.00,147.00
           C 343.00,147.00 335.00,158.00 335.00,158.00
             335.00,158.00 340.00,159.00 340.00,159.00
             340.00,159.00 337.00,163.00 337.00,163.00
             337.00,163.00 334.22,160.41 334.22,160.41
             328.15,154.01 334.69,153.11 338.00,146.00
             338.00,146.00 343.00,147.00 343.00,147.00 Z" />
</svg>
